<mxfile host="app.diagrams.net" modified="2023-10-31T22:02:56.106Z" agent="Mozilla/5.0 (Windows NT 10.0; Win64; x64) AppleWebKit/537.36 (KHTML, like Gecko) Chrome/118.0.0.0 Safari/537.36" etag="0AyKJKJg9HMCZnY4A0l2" version="22.0.8" type="github">
  <diagram name="Page-1" id="hwB6YnVbJ-zOK6qWDkJ9">
    <mxGraphModel dx="1674" dy="806" grid="1" gridSize="10" guides="1" tooltips="1" connect="1" arrows="1" fold="1" page="1" pageScale="1" pageWidth="827" pageHeight="1169" math="0" shadow="0">
      <root>
        <mxCell id="0" />
        <mxCell id="1" parent="0" />
        <mxCell id="rE0NdEYfs67Jmnbw0Lsc-2" value="" style="endArrow=classic;html=1;rounded=0;entryX=0.328;entryY=0;entryDx=0;entryDy=0;entryPerimeter=0;" edge="1" parent="1" target="rE0NdEYfs67Jmnbw0Lsc-1">
          <mxGeometry width="50" height="50" relative="1" as="geometry">
            <mxPoint x="359" y="50" as="sourcePoint" />
            <mxPoint x="490" y="130" as="targetPoint" />
          </mxGeometry>
        </mxCell>
        <mxCell id="rE0NdEYfs67Jmnbw0Lsc-3" value="" style="endArrow=classic;html=1;rounded=0;entryX=0.709;entryY=-0.005;entryDx=0;entryDy=0;entryPerimeter=0;" edge="1" parent="1" target="rE0NdEYfs67Jmnbw0Lsc-1">
          <mxGeometry width="50" height="50" relative="1" as="geometry">
            <mxPoint x="480" y="50" as="sourcePoint" />
            <mxPoint x="440" y="390" as="targetPoint" />
          </mxGeometry>
        </mxCell>
        <mxCell id="rE0NdEYfs67Jmnbw0Lsc-4" value="Zakonska regulativa" style="text;html=1;align=center;verticalAlign=middle;resizable=0;points=[];autosize=1;strokeColor=none;fillColor=none;" vertex="1" parent="1">
          <mxGeometry x="230" y="100" width="130" height="30" as="geometry" />
        </mxCell>
        <mxCell id="rE0NdEYfs67Jmnbw0Lsc-5" value="Standaridi" style="text;html=1;align=center;verticalAlign=middle;resizable=0;points=[];autosize=1;strokeColor=none;fillColor=none;" vertex="1" parent="1">
          <mxGeometry x="480" y="100" width="80" height="30" as="geometry" />
        </mxCell>
        <mxCell id="rE0NdEYfs67Jmnbw0Lsc-6" value="" style="endArrow=classic;html=1;rounded=0;exitX=0.997;exitY=0.84;exitDx=0;exitDy=0;exitPerimeter=0;" edge="1" parent="1" source="rE0NdEYfs67Jmnbw0Lsc-1">
          <mxGeometry width="50" height="50" relative="1" as="geometry">
            <mxPoint x="580" y="470" as="sourcePoint" />
            <mxPoint x="760" y="470" as="targetPoint" />
          </mxGeometry>
        </mxCell>
        <mxCell id="rE0NdEYfs67Jmnbw0Lsc-7" value="" style="endArrow=classic;html=1;rounded=0;exitX=1;exitY=0.7;exitDx=0;exitDy=0;exitPerimeter=0;" edge="1" parent="1" source="rE0NdEYfs67Jmnbw0Lsc-1">
          <mxGeometry width="50" height="50" relative="1" as="geometry">
            <mxPoint x="580" y="440" as="sourcePoint" />
            <mxPoint x="760" y="440" as="targetPoint" />
          </mxGeometry>
        </mxCell>
        <mxCell id="rE0NdEYfs67Jmnbw0Lsc-8" value="" style="endArrow=classic;html=1;rounded=0;exitX=1;exitY=0.56;exitDx=0;exitDy=0;exitPerimeter=0;" edge="1" parent="1" source="rE0NdEYfs67Jmnbw0Lsc-1">
          <mxGeometry width="50" height="50" relative="1" as="geometry">
            <mxPoint x="390" y="440" as="sourcePoint" />
            <mxPoint x="760" y="410" as="targetPoint" />
          </mxGeometry>
        </mxCell>
        <mxCell id="rE0NdEYfs67Jmnbw0Lsc-9" value="" style="endArrow=classic;html=1;rounded=0;exitX=1.006;exitY=0.405;exitDx=0;exitDy=0;exitPerimeter=0;" edge="1" parent="1" source="rE0NdEYfs67Jmnbw0Lsc-1">
          <mxGeometry width="50" height="50" relative="1" as="geometry">
            <mxPoint x="390" y="440" as="sourcePoint" />
            <mxPoint x="760" y="380" as="targetPoint" />
          </mxGeometry>
        </mxCell>
        <mxCell id="rE0NdEYfs67Jmnbw0Lsc-10" value="" style="endArrow=classic;html=1;rounded=0;exitX=1;exitY=0.25;exitDx=0;exitDy=0;" edge="1" parent="1" source="rE0NdEYfs67Jmnbw0Lsc-1">
          <mxGeometry width="50" height="50" relative="1" as="geometry">
            <mxPoint x="390" y="440" as="sourcePoint" />
            <mxPoint x="760" y="350" as="targetPoint" />
          </mxGeometry>
        </mxCell>
        <mxCell id="rE0NdEYfs67Jmnbw0Lsc-11" value="" style="endArrow=classic;html=1;rounded=0;exitX=0.994;exitY=0.1;exitDx=0;exitDy=0;exitPerimeter=0;" edge="1" parent="1" source="rE0NdEYfs67Jmnbw0Lsc-1">
          <mxGeometry width="50" height="50" relative="1" as="geometry">
            <mxPoint x="580" y="320" as="sourcePoint" />
            <mxPoint x="760" y="320" as="targetPoint" />
          </mxGeometry>
        </mxCell>
        <mxCell id="rE0NdEYfs67Jmnbw0Lsc-12" value="Ponuda kupcima" style="text;html=1;align=center;verticalAlign=middle;resizable=0;points=[];autosize=1;strokeColor=none;fillColor=none;" vertex="1" parent="1">
          <mxGeometry x="605" y="299" width="110" height="30" as="geometry" />
        </mxCell>
        <mxCell id="rE0NdEYfs67Jmnbw0Lsc-14" value="(Gotovi) proizvodi" style="text;html=1;align=center;verticalAlign=middle;resizable=0;points=[];autosize=1;strokeColor=none;fillColor=none;" vertex="1" parent="1">
          <mxGeometry x="600" y="328" width="120" height="30" as="geometry" />
        </mxCell>
        <mxCell id="rE0NdEYfs67Jmnbw0Lsc-15" value="Faktura kupcima" style="text;html=1;align=center;verticalAlign=middle;resizable=0;points=[];autosize=1;strokeColor=none;fillColor=none;" vertex="1" parent="1">
          <mxGeometry x="605" y="359" width="110" height="30" as="geometry" />
        </mxCell>
        <mxCell id="rE0NdEYfs67Jmnbw0Lsc-16" value="Zahtev za inf. dobavljaca" style="text;html=1;align=center;verticalAlign=middle;resizable=0;points=[];autosize=1;strokeColor=none;fillColor=none;" vertex="1" parent="1">
          <mxGeometry x="590" y="390" width="160" height="30" as="geometry" />
        </mxCell>
        <mxCell id="rE0NdEYfs67Jmnbw0Lsc-17" value="Porudzbenica za proizvode" style="text;html=1;align=center;verticalAlign=middle;resizable=0;points=[];autosize=1;strokeColor=none;fillColor=none;" vertex="1" parent="1">
          <mxGeometry x="585" y="419" width="170" height="30" as="geometry" />
        </mxCell>
        <mxCell id="rE0NdEYfs67Jmnbw0Lsc-18" value="Isplata dobavljaca" style="text;html=1;align=center;verticalAlign=middle;resizable=0;points=[];autosize=1;strokeColor=none;fillColor=none;" vertex="1" parent="1">
          <mxGeometry x="610" y="448" width="120" height="30" as="geometry" />
        </mxCell>
        <mxCell id="rE0NdEYfs67Jmnbw0Lsc-21" value="" style="endArrow=classic;html=1;rounded=0;" edge="1" parent="1" source="rE0NdEYfs67Jmnbw0Lsc-1">
          <mxGeometry width="50" height="50" relative="1" as="geometry">
            <mxPoint x="390" y="440" as="sourcePoint" />
            <mxPoint x="440" y="390" as="targetPoint" />
          </mxGeometry>
        </mxCell>
        <mxCell id="rE0NdEYfs67Jmnbw0Lsc-22" value="" style="endArrow=classic;html=1;rounded=0;entryX=-0.019;entryY=0.735;entryDx=0;entryDy=0;entryPerimeter=0;" edge="1" parent="1">
          <mxGeometry width="50" height="50" relative="1" as="geometry">
            <mxPoint x="40" y="440" as="sourcePoint" />
            <mxPoint x="254.92000000000007" y="442" as="targetPoint" />
          </mxGeometry>
        </mxCell>
        <mxCell id="rE0NdEYfs67Jmnbw0Lsc-23" value="" style="endArrow=classic;html=1;rounded=0;" edge="1" parent="1">
          <mxGeometry width="50" height="50" relative="1" as="geometry">
            <mxPoint x="40" y="410" as="sourcePoint" />
            <mxPoint x="255" y="410" as="targetPoint" />
          </mxGeometry>
        </mxCell>
        <mxCell id="rE0NdEYfs67Jmnbw0Lsc-24" value="" style="endArrow=classic;html=1;rounded=0;entryX=-0.006;entryY=0.41;entryDx=0;entryDy=0;entryPerimeter=0;" edge="1" parent="1">
          <mxGeometry width="50" height="50" relative="1" as="geometry">
            <mxPoint x="40" y="380" as="sourcePoint" />
            <mxPoint x="255.07999999999993" y="380" as="targetPoint" />
          </mxGeometry>
        </mxCell>
        <mxCell id="rE0NdEYfs67Jmnbw0Lsc-25" value="" style="endArrow=classic;html=1;rounded=0;entryX=0;entryY=0.25;entryDx=0;entryDy=0;" edge="1" parent="1" target="rE0NdEYfs67Jmnbw0Lsc-1">
          <mxGeometry width="50" height="50" relative="1" as="geometry">
            <mxPoint x="40" y="350" as="sourcePoint" />
            <mxPoint x="440" y="390" as="targetPoint" />
          </mxGeometry>
        </mxCell>
        <mxCell id="rE0NdEYfs67Jmnbw0Lsc-26" value="" style="endArrow=classic;html=1;rounded=0;" edge="1" parent="1">
          <mxGeometry width="50" height="50" relative="1" as="geometry">
            <mxPoint x="40" y="320" as="sourcePoint" />
            <mxPoint x="255" y="320" as="targetPoint" />
          </mxGeometry>
        </mxCell>
        <mxCell id="rE0NdEYfs67Jmnbw0Lsc-27" value="" style="endArrow=classic;html=1;rounded=0;entryX=0.709;entryY=1.03;entryDx=0;entryDy=0;entryPerimeter=0;" edge="1" parent="1" target="rE0NdEYfs67Jmnbw0Lsc-1">
          <mxGeometry width="50" height="50" relative="1" as="geometry">
            <mxPoint x="480" y="720" as="sourcePoint" />
            <mxPoint x="440" y="390" as="targetPoint" />
          </mxGeometry>
        </mxCell>
        <mxCell id="rE0NdEYfs67Jmnbw0Lsc-28" value="" style="endArrow=classic;html=1;rounded=0;entryX=0.328;entryY=1.015;entryDx=0;entryDy=0;entryPerimeter=0;" edge="1" parent="1" target="rE0NdEYfs67Jmnbw0Lsc-1">
          <mxGeometry width="50" height="50" relative="1" as="geometry">
            <mxPoint x="359" y="720" as="sourcePoint" />
            <mxPoint x="440" y="390" as="targetPoint" />
          </mxGeometry>
        </mxCell>
        <mxCell id="rE0NdEYfs67Jmnbw0Lsc-29" value="" style="endArrow=classic;html=1;rounded=0;" edge="1" parent="1" target="rE0NdEYfs67Jmnbw0Lsc-1">
          <mxGeometry width="50" height="50" relative="1" as="geometry">
            <mxPoint x="390" y="440" as="sourcePoint" />
            <mxPoint x="440" y="390" as="targetPoint" />
          </mxGeometry>
        </mxCell>
        <mxCell id="rE0NdEYfs67Jmnbw0Lsc-1" value="" style="rounded=0;whiteSpace=wrap;html=1;" vertex="1" parent="1">
          <mxGeometry x="254" y="299" width="320" height="200" as="geometry" />
        </mxCell>
        <mxCell id="rE0NdEYfs67Jmnbw0Lsc-30" value="" style="endArrow=classic;html=1;rounded=0;entryX=-0.006;entryY=0.885;entryDx=0;entryDy=0;entryPerimeter=0;" edge="1" parent="1" target="rE0NdEYfs67Jmnbw0Lsc-1">
          <mxGeometry width="50" height="50" relative="1" as="geometry">
            <mxPoint x="40" y="476" as="sourcePoint" />
            <mxPoint x="440" y="390" as="targetPoint" />
          </mxGeometry>
        </mxCell>
        <mxCell id="rE0NdEYfs67Jmnbw0Lsc-31" value="Zahtevi kupca" style="text;html=1;align=center;verticalAlign=middle;resizable=0;points=[];autosize=1;strokeColor=none;fillColor=none;" vertex="1" parent="1">
          <mxGeometry x="100" y="298" width="100" height="30" as="geometry" />
        </mxCell>
        <mxCell id="rE0NdEYfs67Jmnbw0Lsc-32" value="porudzbine kupca" style="text;html=1;align=center;verticalAlign=middle;resizable=0;points=[];autosize=1;strokeColor=none;fillColor=none;" vertex="1" parent="1">
          <mxGeometry x="90" y="328" width="120" height="30" as="geometry" />
        </mxCell>
        <mxCell id="rE0NdEYfs67Jmnbw0Lsc-34" value="Uplata kupca" style="text;html=1;align=center;verticalAlign=middle;resizable=0;points=[];autosize=1;strokeColor=none;fillColor=none;" vertex="1" parent="1">
          <mxGeometry x="105" y="358" width="90" height="30" as="geometry" />
        </mxCell>
        <mxCell id="rE0NdEYfs67Jmnbw0Lsc-35" value="Informacije od dobavljaca" style="text;html=1;align=center;verticalAlign=middle;resizable=0;points=[];autosize=1;strokeColor=none;fillColor=none;" vertex="1" parent="1">
          <mxGeometry x="70" y="389" width="160" height="30" as="geometry" />
        </mxCell>
        <mxCell id="rE0NdEYfs67Jmnbw0Lsc-36" value="Proizvodi od dobavljaca" style="text;html=1;align=center;verticalAlign=middle;resizable=0;points=[];autosize=1;strokeColor=none;fillColor=none;" vertex="1" parent="1">
          <mxGeometry x="75" y="418" width="150" height="30" as="geometry" />
        </mxCell>
        <mxCell id="rE0NdEYfs67Jmnbw0Lsc-37" value="Faktura dobavljaca" style="text;html=1;align=center;verticalAlign=middle;resizable=0;points=[];autosize=1;strokeColor=none;fillColor=none;" vertex="1" parent="1">
          <mxGeometry x="90" y="454" width="120" height="30" as="geometry" />
        </mxCell>
        <mxCell id="rE0NdEYfs67Jmnbw0Lsc-38" value="Ljudski resursi" style="text;html=1;align=center;verticalAlign=middle;resizable=0;points=[];autosize=1;strokeColor=none;fillColor=none;" vertex="1" parent="1">
          <mxGeometry x="260" y="600" width="100" height="30" as="geometry" />
        </mxCell>
        <mxCell id="rE0NdEYfs67Jmnbw0Lsc-39" value="Oprema" style="text;html=1;align=center;verticalAlign=middle;resizable=0;points=[];autosize=1;strokeColor=none;fillColor=none;" vertex="1" parent="1">
          <mxGeometry x="490" y="600" width="70" height="30" as="geometry" />
        </mxCell>
      </root>
    </mxGraphModel>
  </diagram>
</mxfile>
